{"title":"The Kettering Incident - S01E08 - The Homecoming","uid":15612761,"size":1341778838,"categoryP":"video","categoryS":"tv_shows","magnet":"?xt=urn:btih:0acc1cbab3b13ba014498a38c21c73937de4a492&amp;dn=The+Kettering+Incident+-+S01E08+-+The+Homecoming&amp;tr=udp%3A%2F%2Ftracker.leechers-paradise.org%3A6969&amp;tr=udp%3A%2F%2Fzer0day.ch%3A1337&amp;tr=udp%3A%2F%2Fopen.demonii.com%3A1337&amp;tr=udp%3A%2F%2Ftracker.coppersurfer.tk%3A6969&amp;tr=udp%3A%2F%2Fexodus.desync.com%3A6969","seeders":31,"leechers":3,"uploader":"Bullrout","files":1,"time":1471801306,"description":"The Kettering Incident - S01E08 - The Homecoming\r\n\r\nAnna is convinced she knows what happened to Gillian 15 years ago. The town farewells a local while another life hangs in the balance. Anna faces the shocking truth of what happened the night of The Kettering Incident.\r\n\r\nComplete name                            : The Kettering Incident - S01E08 - The Homecoming.mkv\r\nFormat                                   : Matroska\r\nFormat version                           : Version 4 / Version 2\r\nFile size                                : 1.25 GiB\r\nDuration                                 : 54mn 1s\r\nOverall bit rate mode                    : Variable\r\nOverall bit rate                         : 3 311 Kbps\r\nEncoded date                             : UTC 2016-08-21 15:20:10\r\nWriting application                      : mkvmerge v9.3.1 ('Mask Machine') 64bit\r\nWriting library                          : libebml v1.3.4 + libmatroska v1.4.5\r\n\r\nVideo\r\nID                                       : 2\r\nFormat                                   : AVC\r\nFormat/Info                              : Advanced Video Codec\r\nFormat profile                           :   \r\nFormat settings, CABAC                   : Yes\r\nFormat settings, ReFrames                : 3 frames\r\nCodec ID                                 : V_MPEG4/ISO/AVC\r\nDuration                                 : 54mn 1s\r\nBit rate mode                            : Variable\r\nBit rate                                 : 2 926 Kbps\r\nMaximum bit rate                         : 3 000 Kbps\r\nWidth                                    : 1 280 pixels\r\nHeight                                   : 688 pixels\r\nDisplay aspect ratio                     : 1.85:1\r\nFrame rate mode                          : Constant\r\nFrame rate                               : 25.000 fps\r\nStandard                                 : PAL\r\nColor space                              : YUV\r\nChroma subsampling                       : 4:2:0\r\nBit depth                                : 8 bits\r\nScan type                                : Progressive\r\nBits/(Pixel*Frame)                       : 0.133\r\nStream size                              : 1.10 GiB (88%)\r\nWriting library                          : x264 core 112\r\nDefault                                  : Yes\r\nForced                                   : No\r\nColor range                              : Limited\r\nColor primaries                          : BT.709\r\nTransfer characteristics                 : BT.709\r\nMatrix coefficients                      : BT.709\r\n\r\nAudio\r\nID                                       : 1\r\nFormat                                   : AC-3\r\nFormat/Info                              : Audio Coding 3\r\nMode extension                           : CM (complete main)\r\nFormat settings, Endianness              : Big\r\nCodec ID                                 : A_AC3\r\nDuration                                 : 54mn 1s\r\nBit rate mode                            : Constant\r\nBit rate                                 : 384 Kbps\r\nChannel(s)                               : 6 channels\r\nChannel positions                        : Front: L C R, Side: L R, LFE\r\nSampling rate                            : 48.0 KHz\r\nFrame rate                               : 31.250 fps (1536 spf)\r\nCompression mode                         : Lossy\r\nStream size                              : 148 MiB (12%)\r\nDefault                                  : Yes\r\nForced                                   : No","torrent":{"xt":"urn:btih:0acc1cbab3b13ba014498a38c21c73937de4a492","amp;dn":"The+Kettering+Incident+-+S01E08+-+The+Homecoming","amp;tr":["udp%3A%2F%2Ftracker.leechers-paradise.org%3A6969","udp%3A%2F%2Fzer0day.ch%3A1337","udp%3A%2F%2Fopen.demonii.com%3A1337","udp%3A%2F%2Ftracker.coppersurfer.tk%3A6969","udp%3A%2F%2Fexodus.desync.com%3A6969"],"infoHash":"0acc1cbab3b13ba014498a38c21c73937de4a492","infoHashBuffer":{"type":"Buffer","data":[10,204,28,186,179,177,59,160,20,73,138,56,194,28,115,147,125,228,164,146]},"announce":[],"urlList":[]}}